<?xml version="1.0"?>
<svg version="1.1" xmlns="http://www.w3.org/2000/svg" width="280" height="95" style="border: dashed 2px #aaa"><path fill="#22ab00" d="M50.948,59.432l3.686-0.076q1.368,0,1.368,0.19q0,0.494-5.548,0.874q-3.534,6.916-3.534,9.424q0,1.748,1.102,1.748q0.418,0,1.045-0.513t0.76-0.513t0.133,0.19q-0.19,0.684-1.159,1.14t-1.634,0.456t-1.045-0.076q-0.912-0.342-0.912-2.204q0-3.838,2.926-9.766l-4.56,0.114q-5.092,4.978-10.222,8.74q-7.676,5.586-12.008,5.586q-0.266,0-0.532-0.038q-5.852-0.494-5.852-6.004q0-3.268,2.052-6.916q2.736-4.864,7.486-8.303t8.512-3.439t3.762,2.774q0,1.862-1.14,4.142t-2.318,2.888q-0.114,0.038-0.247,0.038t-0.133-0.076l1.254-2.052q1.292-2.014,1.292-3.534t-0.665-2.451t-2.109-0.931q-2.964,0-7.087,3.306t-6.27,8.132t-2.147,7.524q0,4.066,4.142,4.066q3.952,0,10.716-5.092q3.002-2.242,9.766-8.474q-1.33,0.076-2.47,0.266q-2.432,0.456-2.28-0.152q0.152-1.406,1.444-1.406q2.508,0.304,4.218,0.304q3.268-3.002,9.766-9.842q4.37-4.598,5.32-4.598q0.418,0,0.418,0.646t-0.342,2.014t-0.76,1.672q-0.874,0.608-1.634,1.653t-2.166,3.914t-2.394,4.655z M53.988,50.16l-9.728,9.12l2.242,0q0.798,0.038,1.976,0.038q1.102-2.166,5.51-9.158z M57.98446,68.742q-1.52,1.064-2.166,1.064q-0.874,0-0.874-0.95q0-0.342,0.228-0.836t0.456-0.494q0.342,0,0.152,0.57q-0.114,0.57,0.342,0.57t1.102-0.456l-1.444-1.102q-0.076-0.076-0.076-0.266t0.38-0.551t0.589-0.361t1.843,1.292q4.712-5.32,6.916-6.992q-3.002-0.912-4.446-0.912q-0.418,0-0.798,0.057t-0.817,0.456t-0.437,0.893t0.418,0.817t0.418,0.513t-0.285,0.19t-0.931-0.76q-0.608-0.76-0.608-1.558q0-1.33,1.938-1.748q1.026-0.19,2.09-0.19t5.244,1.368q0.532-0.304,1.14-0.304q1.596,0,1.596,0.95q0,0.38-0.494,0.703t-1.178,0.323t-1.254-0.266q-3.61,2.242-7.752,7.068l1.368,1.064q1.634,1.064,3.8,1.064t3.192-0.684t1.026-1.748q0-0.494-0.19-0.931t0.342-0.437q0.19,0,0.38,0.437t0.19,1.045q0,1.52-1.444,2.508t-3.724,0.988q-2.508,0-4.142-0.95q-0.646-0.342-2.09-1.444z M73.72292,70.794q-0.418,0-0.76-0.114q-2.432-0.684-2.432-2.736q0-2.66,3.344-6.156t6.004-3.496q0.874,0,1.425,0.475t0.551,1.159q0,2.128-3.211,4.066t-5.225,1.938q-0.304,0-0.532-0.076q-0.57,1.026-0.57,2.166q0,1.976,1.881,1.976t4.883-2.546q2.318-1.862,3.952-3.952q0.342-0.456,0.589-0.456t0.247,0.228t-0.304,0.646q-2.052,2.698-4.94,4.788t-4.902,2.09z M80.90492,59.85q0-0.456-0.969-0.456t-2.755,1.482q-2.394,1.976-3.724,4.142q0.228,0.076,0.494,0.076q1.444,0,3.857-1.539t3.021-3.363q0.076-0.19,0.076-0.342z M95.69338,58.786q4.256-6.916,5.928-6.916q0.266,0,0.741,0.171t0.475,0.513q0,0.19-0.19,0.494q-3.04,3.724-4.522,5.586q-4.484,5.662-4.94,8.132q-0.114,0.532-0.114,1.064q0,1.71,1.406,1.71q2.812,0,7.334-5.206q0.38-0.38,0.646-0.437t0.266,0.133t-0.228,0.456q-4.408,5.282-7.828,5.89q-0.19,0.038-0.532,0.038q-1.178,0-1.767-0.817t-0.589-1.767q0-1.064,0.418-2.356l-3.078,3.078q-2.09,1.938-3.287,1.938t-1.995-0.646q-0.95-0.722-0.95-2.014q0-2.774,3.876-6.631t7.106-3.857q1.064,0,1.482,0.57q0.152,0.19,0.342,0.874z M84.48338,68.286q0,1.368,0.95,1.368q1.634,0,5.434-4.484q0.684-0.798,4.56-5.966q-0.266-0.456-0.912-0.456q-2.356,0-6.194,3.591t-3.838,5.947z"/><path fill="#026600" d="M114.86984,64.352l0.66,3.696s1.76,0.924,4.312,0.924c2.816,0,5.324-1.232,5.324-3.564c0-5.148-14.872-2.86-14.872-13.728c0-6.072,4.796-9.328,11.176-9.328c4.972,0,9.68,1.76,9.68,1.76l-0.22,8.008l-4.048,0l-1.1-3.74s-1.98-0.66-3.872-0.66c-3.124,0-4.664,1.364-4.664,3.124c0,5.104,14.828,3.08,14.828,13.42c0,6.6-5.104,10.208-11.88,10.208c-4.972,0-9.812-1.672-9.812-1.672l0-8.448l4.488,0z M147.10028,68.84l0-20.68l-4.18,0l-1.1,4.18l-4.048,0l0-9.46l25.52,0l0,9.46l-4.092,0l-1.1-4.18l-4.18,0l0,20.68l4.18,1.32l0,3.74l-15.18,0l0-3.74z M183.73072,42.352c8.8,0,13.86,5.808,13.86,15.62c0,9.9-5.94,16.5-14.74,16.5s-13.64-5.5-13.64-15.84c0-10.12,5.588-16.28,14.52-16.28z M183.51072,47.852c-4.4,0-6.82,2.728-6.82,10.56c0,7.26,1.98,10.56,6.38,10.56s7.04-2.86,7.04-10.78c0-7.26-2.2-10.34-6.6-10.34z M204.60916,73.9l0-3.74l3.3-1.32l0-20.68l-3.3-1.32l0-3.74l10.12-0.22l3.344,0c7.216,0,11.44,2.992,11.44,8.976c0,4.136-1.98,6.82-4.972,8.316c0.484,0.572,1.144,1.408,1.848,2.86l2.948,6.028l2.992,1.1l0,3.74l-8.14,0l-3.696-8.14c-1.496-3.344-1.892-4.048-4.224-4.048l-1.54,0l0,7.128l3.168,1.32l0,3.74l-13.288,0z M214.72916,57.092l2.508,0c3.476,0,5.5-1.672,5.5-4.62c0-2.508-1.672-4.312-4.4-4.312l-3.608,0l0,8.932z M256.8156,55.42l0,4.84l-8.888,0l0,8.36l7.876,0l1.012-3.608l3.96,0l0,8.888l-22.968,0l0-3.74l3.3-1.32l0-20.68l-3.3-1.32l0-3.74l10.12-0.22l12.32,0l0,8.492l-3.96,0l-1.1-3.212l-7.26,0l0,7.26l8.888,0z"/></svg>
